PathFileType	4	(X/Y/Z)	CPRIT_Patient3_R_HipIso_Processed.TRC
DataRate	CameraRate	NumFrames	NumMarkers	Units	OrigDataRate	OrigDataStartFrame	OrigNumFrames
150.128314798973	150.128314798973	4	39	m	150.128314798973	1	       1171
Frame#	Time	R.Heel			R.Midfoot.Superior			R.Midfoot.Lateral			R.Toe			L.Heel			L.Midfoot.Superior			L.Midfoot.Lateral			L.Toe			R.Shank.Superior			R.Shank.Inferior			R.Shank.Lateral			R.Shank.Posterior			L.Shank.Superior			L.Shank.Inferior			L.Shank.Posterior			L.Shank.Lateral			R.Patella			L.Patella			R.Thigh.Superior			R.Thigh.Lateral			R.Thigh.Inferior			L.Thigh.Superior			L.Thigh.Inferior			L.Thigh.Lateral			L.Asis			R.Asis			Sacral			R.Shoulder			L.Shoulder			C7			J.Notch			Sternum			Thoracic			L.Elbow			L.Wrist			R.Elbow			R.Wrist			R.PSIS			L.PSIS			
		X1	Y1	Z1	X2	Y2	Z2	X3	Y3	Z3	X4	Y4	Z4	X5	Y5	Z5	X6	Y6	Z6	X7	Y7	Z7	X8	Y8	Z8	X9	Y9	Z9	X10	Y10	Z10	X11	Y11	Z11	X12	Y12	Z12	X13	Y13	Z13	X14	Y14	Z14	X15	Y15	Z15	X16	Y16	Z16	X17	Y17	Z17	X18	Y18	Z18	X19	Y19	Z19	X20	Y20	Z20	X21	Y21	Z21	X22	Y22	Z22	X23	Y23	Z23	X24	Y24	Z24	X25	Y25	Z25	X26	Y26	Z26	X27	Y27	Z27	X28	Y28	Z28	X29	Y29	Z29	X30	Y30	Z30	X31	Y31	Z31	X32	Y32	Z32	X33	Y33	Z33	X34	Y34	Z34	X35	Y35	Z35	X36	Y36	Z36	X37	Y37	Z37	X38	Y38	Z38	X39	Y39	Z39	

1	0.000000000000	0.675250077065	0.069854370665	-0.077785715234	0.824364548968	0.117661860638	0.006037068354	0.723049909562	0.056003637717	0.004586402282	0.927291519140	0.071800740959	0.061522654700	0.720598129188	0.042607056913	-0.221926853557	0.891350898045	0.096740549054	-0.214385723782	0.806644085479	0.033065566473	-0.268730233336	1.007828238202	0.057808329358	-0.204267277484	0.832255099749	0.371138329908	0.020037333945	0.802482951559	0.253870564232	0.004846998619	0.731565994536	0.319591364805	0.039216399502	0.703032818613	0.390967017206	-0.031620956551	0.855256395932	0.366407981260	-0.239170722818	0.840934753955	0.238361555522	-0.230073622714	0.716865884259	0.342651928225	-0.266032639140	0.797910185432	0.280595051229	-0.301854095856	0.880671345482	0.491006102990	0.019596771161	0.871602873849	0.478319934335	-0.227061728933	0.869844401144	0.812439518487	0.030113929629	0.788813475326	0.731600989566	0.064134430952	0.892034628447	0.654993337264	0.011176935728	0.917169847840	0.771443069148	-0.251419909618	0.903820969922	0.614678198939	-0.221415942601	0.840222357268	0.707861211860	-0.311473218663	0.916161832948	0.929863997863	-0.225726289061	0.846659128547	0.961088947980	0.002291071014	0.705931938861	1.008617998175	-0.160775969180	0.782791020766	1.420631264951	0.013884275951	0.898137568663	1.449552527914	-0.294637916931	0.796968490604	1.479541477309	-0.137015257005	0.912819874272	1.380403092109	-0.115085338362	0.962105050897	1.198414184141	-0.112621307940	0.713120872729	1.334785961953	-0.170356472341	0.884306555570	1.166097969168	-0.471779438159	1.057702177173	0.969104292824	-0.490340230887	0.754093442492	1.153983138101	0.218713997708	0.844105721960	0.989061941560	0.398160287043	0.698587641521	1.013044854361	-0.123997019809	0.715809382445	1.005875086769	-0.197827226818	
2	0.006660968661	0.676357391412	0.069744027796	-0.075953313611	0.825619305626	0.117680228420	0.007631256925	0.724265542575	0.056003784460	0.006372128357	0.928626709287	0.071890140917	0.063049471674	0.720596436264	0.042609963339	-0.221925740302	0.891352475874	0.096730362972	-0.214369836511	0.806647572540	0.033068704018	-0.268723041158	1.007836622701	0.057798332257	-0.204251984436	0.833067034461	0.371360195097	0.020987843617	0.803484149837	0.254007523119	0.006114454420	0.732511254373	0.319678851950	0.040467447337	0.703719461798	0.390854915681	-0.030465442549	0.855300308910	0.366387195330	-0.239113344925	0.840980996269	0.238358690424	-0.230020512423	0.716930879204	0.342673393377	-0.265962024473	0.797965721272	0.280601577501	-0.301796174282	0.881248068573	0.491310272842	0.020218794164	0.871823069604	0.478334036968	-0.226726127568	0.870042322841	0.812625041057	0.030393761277	0.789123403793	0.731765806979	0.064464456400	0.892404976281	0.655208048408	0.011609796621	0.917283977330	0.771423382494	-0.251334014914	0.903977924259	0.614709431675	-0.221209180980	0.840349420978	0.707845664750	-0.311404670778	0.916334095473	0.929864869508	-0.225557988139	0.846695223487	0.961161801730	0.002414769890	0.706014175434	1.008551075129	-0.160751982817	0.782594220226	1.420582504172	0.013866279490	0.898049553991	1.449563012106	-0.294607848467	0.796788412255	1.479486072079	-0.137032469665	0.912710858303	1.380450196615	-0.115050242953	0.962091520177	1.198509998046	-0.112555955498	0.713038422383	1.334744646890	-0.170365657608	0.884391826659	1.166113519873	-0.471744022661	1.057769647625	0.969118711989	-0.490332475660	0.754034409298	1.153949529223	0.218725581404	0.844098291284	0.989059660791	0.398163346110	0.698640305055	1.012981064492	-0.123983860139	0.715898050118	1.005815502325	-0.197800522143	
3	0.013321937322	0.677527615188	0.069626233324	-0.074039287694	0.826945161691	0.117698945321	0.009286038154	0.725553521050	0.056001104599	0.008233356898	0.930039940865	0.071982346608	0.064625230669	0.720594652788	0.042612938483	-0.221924429319	0.891353262227	0.096719271637	-0.214354997930	0.806650925750	0.033071981723	-0.268715950100	1.007845719420	0.057788646166	-0.204236011356	0.833920655193	0.371594110420	0.021975095978	0.804539739483	0.254151164013	0.007432515827	0.733505761578	0.319770211358	0.041768849725	0.704442165857	0.390736742298	-0.029262571075	0.855347366888	0.366365808668	-0.239055903840	0.841029470402	0.238355914733	-0.229965713007	0.716996358973	0.342695862045	-0.265889000156	0.798022146461	0.280608497705	-0.301737011612	0.881851540855	0.491632690735	0.020861219063	0.872047133622	0.478346574290	-0.226387701674	0.870247324432	0.812820982553	0.030678337224	0.789451451827	0.731943295268	0.064801691240	0.892790927308	0.655437171972	0.012050659627	0.917401341470	0.771404627843	-0.251244176016	0.904138024533	0.614739165360	-0.220999367072	0.840478566567	0.707830188501	-0.311333355119	0.916508811327	0.929867184467	-0.225387431621	0.846729460923	0.961236835245	0.002540786201	0.706097108138	1.008483310325	-0.160727230463	0.782391711652	1.420532471379	0.013848083217	0.897960502590	1.449574847160	-0.294575920998	0.796604071558	1.479429825432	-0.137049516027	0.912599074878	1.380498960501	-0.115013784477	0.962076807979	1.198608406146	-0.112488384520	0.712955120492	1.334703133966	-0.170377316788	0.884480572041	1.166130626073	-0.471707307099	1.057839160218	0.969134208400	-0.490323527067	0.753974138324	1.153915402643	0.218736991070	0.844090813952	0.989057363915	0.398166560110	0.698693404013	1.012916669680	-0.123969901794	0.715988340295	1.005755028548	-0.197772618690	
4	0.019982905983	0.678763657781	0.069500241692	-0.072045920839	0.828344726060	0.117718640310	0.010997585053	0.726917467476	0.055995436109	0.010167393125	0.931534574597	0.072078979866	0.066245195951	0.720592766686	0.042615980895	-0.221922930295	0.891353151670	0.096707238977	-0.214341492849	0.806654135228	0.033075365394	-0.268709020146	1.007855516083	0.057779369765	-0.204219433219	0.834816291635	0.371840432097	0.022996718332	0.805651172565	0.254301694483	0.008798496250	0.734550335378	0.319865323394	0.043118245891	0.705201329745	0.390612162364	-0.028014376802	0.855397356236	0.366343996474	-0.238998894897	0.841080037611	0.238353337567	-0.229909468779	0.717061747080	0.342719234360	-0.265814030779	0.798078953781	0.280615810195	-0.301677054642	0.882481001697	0.491974024312	0.021521778329	0.872273366321	0.478357247173	-0.226049152535	0.870458838765	0.813027694266	0.030965901501	0.789797749503	0.732134241951	0.065144478033	0.893191773141	0.655681296389	0.012496669248	0.917521263195	0.771386997247	-0.251150726350	0.904300117846	0.614766938416	-0.220788038234	0.840608844593	0.707814928883	-0.311259630999	0.916684835814	0.929871006175	-0.225215596718	0.846761066791	0.961313708878	0.002668356125	0.706180054878	1.008415194595	-0.160701916782	0.782184411332	1.420481348634	0.013829851581	0.897871107167	1.449588040063	-0.294542079338	0.796416463185	1.479373012668	-0.137066194312	0.912485126941	1.380549137903	-0.114975966916	0.962060803409	1.198708914096	-0.112418739581	0.712871492918	1.334661737843	-0.170391576431	0.884572670552	1.166149384673	-0.471669492190	1.057910536687	0.969150837652	-0.490313257597	0.753912891843	1.153880928234	0.218748129174	0.844083311559	0.989055057968	0.398169900354	0.698746417716	1.012852147291	-0.123955267359	0.716079727027	1.005694090936	-0.197743646105	
